{"title":"Shrooms.2007.DVDRIP.XVID.AC3.B-BRG.TheO","uid":6591363,"size":1728284546,"categoryP":"video","categoryS":"movies","magnet":"?xt=urn:btih:db1a700d12e57ad3e3d8e8b78c9c79ca696d8c13&amp;dn=Shrooms.2007.DVDRIP.XVID.AC3.B-BRG.TheO&amp;tr=udp%3A%2F%2Ftracker.openbittorrent.com%3A80&amp;tr=udp%3A%2F%2Fopen.demonii.com%3A1337&amp;tr=udp%3A%2F%2Ftracker.coppersurfer.tk%3A6969&amp;tr=udp%3A%2F%2Fexodus.desync.com%3A6969","seeders":0,"leechers":0,"uploader":"sceneline","files":5,"time":1312838597,"description":"- &lt;a href=&quot;\nhttp://www.Speed.Cd&quot; rel=&quot;nofollow&quot; target=&quot;_NEW&quot;&gt;\nhttp://www.Speed.Cd&lt;/a&gt; \n       &lt;a href=&quot;\nhttp://www.Speed.Cd&quot; rel=&quot;nofollow&quot; target=&quot;_NEW&quot;&gt;\nhttp://www.Speed.Cd&lt;/a&gt;      fast  and The Hottest Private Tracker on the net\n\n(((--Registration will be open on june every weekend--)))\n\nPlease Seed back to make the speed Faster!!!\n\n------------------nfo--------------------------\n-     \n  \n   \n   \n                            blues-brothers rg  presents                \n     \n       \n               Shrooms.2007.DVDRIP.XVID.AC3.B-BRG.TheO\n             \n     \n  \n   \n   \n                                encode info                            \n     \n\t    \n\t\tFormat                           : AVI\nFormat/Info                      : Audio Video Interleave\nFile size                        : 1.61 GiB\nDuration                         : 1h 20mn\nOverall bit rate                 : 2 854 Kbps\n\nVideo\nID                               : 0\nFormat                           : MPEG-4 Visual\nFormat profile                   : Advanced Simple@L5\nFormat settings, BVOP            : 2\nFormat settings, QPel            : No\nFormat settings, GMC             : No warppoints\nFormat settings, Matrix          : Default (H.263)\nMuxing mode                      : Packed bitstream\nCodec ID                         : XVID\nCodec ID/Hint                    : XviD\nDuration                         : 1h 20mn\nBit rate                         : 2 398 Kbps\nWidth                            : 672 pixels\nHeight                           : 272 pixels\nDisplay aspect ratio             : 2.471\nFrame rate                       : 25.000 fps\nColor space                      : YUV\nChroma subsampling               : 4:2:0\nBit depth                        : 8 bits\nScan type                        : Progressive\nCompression mode                 : Lossy\nBits/(Pixel*Frame)               : 0.525\nStream size                      : 1.35 GiB (84%)\nWriting library                  : XviD 1.2.1 (UTC 2008-12-04)\n\nAudio\nID                               : 1\nFormat                           : AC-3\nFormat/Info                      : Audio Coding 3\nMode extension                   : CM (complete main)\nCodec ID                         : 2000\nDuration                         : 1h 20mn\nBit rate mode                    : Constant\nBit rate                         : 448 Kbps\nChannel(s)                       : 6 channels\nChannel positions                : Front: L C R, Side: L R, LFE\nSampling rate                    : 48.0 KHz\nBit depth                        : 16 bits\nCompression mode                 : Lossy\nStream size                      : 259 MiB (16%)\nAlignment                        : Aligned on interleaves\nInterleave, duration             : 64 ms (1.60 video frames)\nInterleave, preload duration     : 896 ms","torrent":{"xt":"urn:btih:db1a700d12e57ad3e3d8e8b78c9c79ca696d8c13","amp;dn":"Shrooms.2007.DVDRIP.XVID.AC3.B-BRG.TheO","amp;tr":["udp%3A%2F%2Ftracker.openbittorrent.com%3A80","udp%3A%2F%2Fopen.demonii.com%3A1337","udp%3A%2F%2Ftracker.coppersurfer.tk%3A6969","udp%3A%2F%2Fexodus.desync.com%3A6969"],"infoHash":"db1a700d12e57ad3e3d8e8b78c9c79ca696d8c13","infoHashBuffer":{"type":"Buffer","data":[219,26,112,13,18,229,122,211,227,216,232,183,140,156,121,202,105,109,140,19]},"announce":[],"urlList":[]}}